HIERARCHY
ROOT Hips
{
  OFFSET 71.7574 47.5266 353.468
  CHANNELS 6 Xposition Yposition Zposition Zrotation Xrotation Yrotation
  JOINT Spine
  {
    OFFSET 0 0 0
    CHANNELS 3 Zrotation Xrotation Yrotation
    JOINT Spine1
    {
      OFFSET 19 0 0
      CHANNELS 3 Zrotation Xrotation Yrotation
      JOINT Neck
      {
        OFFSET 22.5 0.6 0
        CHANNELS 3 Zrotation Xrotation Yrotation
        JOINT Head
        {
          OFFSET 14 0.0308777 0
          CHANNELS 3 Zrotation Xrotation Yrotation
          End Site
          {
            OFFSET 17 0 0
          }
        }
      }
      JOINT LeftShoulder
      {
        OFFSET 19.8 3.7 4.3
        CHANNELS 3 Zrotation Xrotation Yrotation
        JOINT LeftArm
        {
          OFFSET 8 0 0
          CHANNELS 3 Zrotation Xrotation Yrotation
          JOINT LeftForeArm
          {
            OFFSET 15.2 0 0
            CHANNELS 3 Zrotation Xrotation Yrotation
            JOINT LeftHand
            {
              OFFSET 17.8 0 0
              CHANNELS 3 Zrotation Xrotation Yrotation
              End Site
              {
                OFFSET 7.2 0 0
              }
            }
          }
        }
      }
      JOINT RightShoulder
      {
        OFFSET 19.8 3.7 -4.3
        CHANNELS 3 Zrotation Xrotation Yrotation
        JOINT RightArm
        {
          OFFSET 8 0 0.151654
          CHANNELS 3 Zrotation Xrotation Yrotation
          JOINT RightForeArm
          {
            OFFSET 15.2 0 0
            CHANNELS 3 Zrotation Xrotation Yrotation
            JOINT RightHand
            {
              OFFSET 17.8 0 0
              CHANNELS 3 Zrotation Xrotation Yrotation
              End Site
              {
                OFFSET 7.2 0 0
              }
            }
          }
        }
      }
    }
  }
  JOINT LeftUpLeg
  {
    OFFSET 5.98425 -7.666 4.78879
    CHANNELS 3 Zrotation Xrotation Yrotation
    JOINT LeftLeg
    {
      OFFSET 16 0 0
      CHANNELS 3 Zrotation Xrotation Yrotation
      JOINT LeftFoot
      {
        OFFSET 18 0 0
        CHANNELS 3 Zrotation Xrotation Yrotation
        End Site
        {
          OFFSET 0 -10.8 0
        }
      }
    }
  }
  JOINT RightUpLeg
  {
    OFFSET 5.98425 -7.66598 -4.78879
    CHANNELS 3 Zrotation Xrotation Yrotation
    JOINT RightLeg
    {
      OFFSET 16 0 0
      CHANNELS 3 Zrotation Xrotation Yrotation
      JOINT RightFoot
      {
        OFFSET 18 0 0
        CHANNELS 3 Zrotation Xrotation Yrotation
        End Site
        {
          OFFSET 0 -10.8 0
        }
      }
    }
  }
  JOINT Tail
  {
    OFFSET 6.83696 -0.722574 0
    CHANNELS 3 Zrotation Xrotation Yrotation
    JOINT Tail1
    {
      OFFSET 12 0 0
      CHANNELS 3 Zrotation Xrotation Yrotation
      End Site
      {
        OFFSET 12 0 0
      }
    }
  }
}
MOTION
Frames:	10
Frame Time:	0.0166667
-22.7361 122.305 -45.9077 -6.2542 -6.88277 128.651 177.414 4.20056 -10.571 15.3765 3.82568 23.2086 28.7401 8.40919 19.3492 -109.856 49.5805 151.307 -113.185 -40.792 -137.388 125.565 -25.7416 -115.062 -55.851 14.6725 -9.12312 -17.3711 4.68292 -19.3743 77.8466 -25.689 43.147 51.3368 -23.0225 -38.4643 -76.1092 -4.46523 -7.73925 -1.17502 2.66999 -14.6821 -129.097 -1.8354 -22.9087 72.5013 15.491 13.8458 47.898 -4.60921 -7.96443 -129.101 -0.0382806 -1.59949 67.5485 -7.34806 -3.37147 59.6427 1.78259 -1.24675 14.2723 64.8529 -69.8358 11.0699 -56.9818 4.5802 
-22.6854 122.335 -45.9664 -6.24326 -7.02426 128.808 177.949 4.25658 -10.4498 15.1076 3.85712 23.414 28.7216 8.4382 19.8116 -109.796 48.9881 151.086 -113.391 -41.0253 -137.465 125.51 -26.077 -114.701 -56.0861 15.1726 -9.543 -17.5988 4.89559 -19.9404 77.9552 -25.4633 42.9506 56.2545 -18.9169 -37.8996 -79.9539 -1.40743 -9.90955 1.37733 2.63298 -17.9798 -128.929 -1.788 -22.9821 72.2851 15.8073 13.8897 48.0578 -4.66767 -8.02152 -128.792 0.00924774 -1.57195 67.3669 -7.22011 -3.39145 59.6007 1.76927 -1.26233 18.3033 67.7226 -74.2702 11.4032 -61.2457 5.12973 
-22.6055 122.359 -46.0378 -6.26714 -7.19252 129.088 178.705 4.44153 -10.25 14.5953 3.96538 23.906 28.6455 8.3055 20.3516 -109.476 48.3311 150.71 -113.624 -41.1695 -137.753 125.401 -26.5303 -114.429 -56.6109 15.7982 -9.95221 -17.887 5.19396 -20.748 77.9548 -25.4162 42.8096 62.6263 -13.8552 -37.9126 -83.6959 1.70114 -12.5566 3.09254 2.63836 -20.6369 -128.725 -1.64425 -23.0774 72.0444 16.2062 13.9688 48.1495 -4.7535 -8.12117 -128.511 0.119524 -1.52204 67.1968 -6.93899 -3.47324 59.7447 1.71443 -1.32071 27.3598 71.8489 -84.0662 11.9368 -69.1802 6.2451 
-22.5434 122.348 -46.0958 -6.31428 -7.19738 129.366 179.144 4.70844 -10.218 14.2065 4.13494 24.8439 28.7218 8.0296 20.7456 -108.98 48.1919 150.296 -113.673 -41.066 -138.041 125.102 -26.7375 -114.572 -57.5098 16.0184 -9.75299 -18.0302 5.3897 -21.3385 77.8221 -25.671 42.9895 68.0088 -10.1385 -38.4973 -85.3023 4.41998 -14.5324 4.59348 2.40974 -21.6103 -128.693 -1.51277 -23.0945 71.7608 16.6773 14.079 48.2774 -4.85321 -8.23444 -128.436 0.0887426 -1.59788 67.1043 -6.52986 -3.41317 59.7042 1.58237 -1.42229 42.9051 75.5076 -100.589 14.8339 -79.2608 10.0114 
-22.5097 122.314 -46.1272 -6.31901 -7.00159 129.667 179.165 4.9145 -10.2294 14.1784 4.27103 25.9173 28.9361 7.73812 21.1173 -108.398 48.3944 149.95 -113.535 -40.7978 -138.185 124.465 -26.5766 -115.199 -58.7488 15.8414 -8.78966 -18.2849 5.58349 -21.9415 77.8718 -25.8534 43.7312 72.752 -7.42097 -39.7456 -85.5388 8.37755 -16.2572 6.76399 1.71871 -20.8543 -128.886 -1.50165 -23.0189 71.5346 17.1586 14.206 48.4589 -4.95384 -8.34151 -128.54 -0.123485 -1.68533 67.1388 -6.0925 -3.22632 59.3651 1.42696 -1.53027 68.0343 77.4943 -126.894 154.372 -87.2396 150.729 
-22.4729 122.273 -46.1294 -6.23333 -6.64055 130.111 178.869 4.95787 -9.7317 14.5011 4.28837 26.3103 29.1837 7.52478 21.8897 -107.725 48.8747 149.73 -113.509 -40.5257 -138.599 123.291 -26.0759 -116.456 -60.1747 15.4543 -7.28276 -18.7822 5.7526 -22.3927 77.8806 -26.042 44.3095 77.5995 -4.99905 -40.8137 -85.0089 13.2455 -18.3073 8.56364 0.967315 -18.6605 -129.122 -1.70102 -22.8729 71.2963 17.401 14.4735 48.4762 -5.04569 -8.44671 -128.829 -0.331412 -1.4121 67.3695 -5.67036 -3.22648 59.0758 1.31139 -1.61993 96.9682 76.1964 -157.145 -179.94 -71.9806 177.858 
-22.4328 122.228 -46.124 -6.13094 -6.23678 130.555 178.3 4.8852 -8.96119 15.2143 4.26491 26.2111 29.4023 7.41917 22.7988 -107.027 49.0729 149.671 -113.59 -40.3801 -139.04 121.75 -25.3492 -117.985 -61.7578 14.7347 -5.52507 -19.1277 5.75776 -22.4022 77.9542 -26.0115 44.5361 81.4083 -2.99577 -41.2549 -83.9194 17.4238 -20.2197 9.25162 0.445601 -15.4808 -129.246 -1.96793 -22.6762 70.9132 17.5463 14.8192 48.3211 -5.14042 -8.56552 -129.282 -0.450096 -0.956336 67.6987 -5.25217 -3.37291 59.2035 1.23904 -1.70874 116.976 71.9382 -178.579 -179.13 -55.0924 -179.611 
-22.4316 122.191 -46.1375 -6.01519 -5.92758 130.837 177.667 4.83535 -8.49574 16.1353 4.3239 26.4057 29.5362 7.3458 23.3501 -106.296 48.7207 149.808 -113.581 -40.3555 -139.062 120.508 -24.5815 -119.155 -63.0329 13.9589 -3.94476 -19.3599 5.72629 -22.3102 78.3083 -25.6024 44.894 82.3317 -2.26406 -40.547 -82.9642 18.3669 -20.7663 7.70996 0.430439 -12.5944 -129.341 -2.20334 -22.5277 70.6292 17.636 15.1294 48.2765 -5.22082 -8.66198 -129.443 -0.634661 -0.64307 67.8077 -5.12417 -3.4081 58.8491 1.19378 -1.7324 128.283 66.2216 168.629 -179.8 -38.6959 -178.269 
-22.4537 122.178 -46.1669 -5.84159 -5.70644 131.018 177.13 4.79802 -8.17424 17.0495 4.41424 26.7318 29.8254 7.38018 23.8067 -106.056 48.2955 149.72 -113.586 -40.4304 -138.942 119.617 -23.9002 -119.969 -63.8777 13.3611 -2.81248 -19.512 5.69853 -22.2171 78.6547 -25.1566 45.1292 81.059 -2.61694 -38.9494 -82.209 15.7085 -19.6748 3.9902 0.781574 -10.1448 -129.314 -2.44645 -22.3929 70.2768 17.8264 15.3768 48.4042 -5.29657 -8.73615 -129.38 -0.900086 -0.383979 67.8299 -5.17483 -3.36333 58.1598 1.1561 -1.7192 134.632 59.8372 160.699 179.083 -24.2716 -177.113 
-22.4507 122.185 -46.2063 -5.68955 -5.64407 131.165 176.717 4.79101 -7.72815 17.9132 4.53864 26.9167 29.9949 7.48407 24.1901 -106.12 47.7748 149.616 -113.655 -40.5868 -138.828 118.878 -23.3038 -120.591 -64.4898 12.9228 -2.09765 -19.4896 5.58486 -21.8979 78.8043 -24.8886 45.0093 78.6847 -3.74985 -37.5052 -80.8658 10.9655 -17.2748 -0.349959 1.04373 -7.43388 -129.105 -2.57803 -22.2836 69.9814 17.9967 15.5091 48.2952 -5.34711 -8.79829 -129.381 -1.06442 -0.19842 68.0072 -4.98117 -3.33267 58.0927 1.09117 -1.77459 137.963 53.1694 155.617 177.852 -12.0617 -175.898 
